<?xml version="1.0" standalone="no"?>
<!DOCTYPE svg PUBLIC "-//W3C//DTD SVG 20010904//EN"
 "http://www.w3.org/TR/2001/REC-SVG-20010904/DTD/svg10.dtd">
<svg version="1.0" xmlns="http://www.w3.org/2000/svg"
 width="289.000000pt" height="289.000000pt" viewBox="0 0 289.000000 289.000000"
 preserveAspectRatio="xMidYMid meet">
<metadata>
Created by potrace 1.14, written by Peter Selinger 2001-2017
</metadata>
<g transform="translate(0.000000,289.000000) scale(0.100000,-0.100000)"
fill="#000000" stroke="none">
<path d="M1210 2661 c0 -6 5 -13 10 -16 6 -3 10 1 10 9 0 9 -4 16 -10 16 -5 0
-10 -4 -10 -9z"/>
<path d="M1226 2593 c-6 -14 -5 -15 5 -6 7 7 10 15 7 18 -3 3 -9 -2 -12 -12z"/>
<path d="M1330 2570 c0 -5 7 -10 16 -10 8 0 12 5 9 10 -3 6 -10 10 -16 10 -5
0 -9 -4 -9 -10z"/>
<path d="M1140 2560 c0 -5 5 -10 10 -10 6 0 10 5 10 10 0 6 -4 10 -10 10 -5 0
-10 -4 -10 -10z"/>
<path d="M1091 2542 c-6 -11 -7 -22 -4 -26 3 -3 1 -6 -5 -6 -7 0 -12 -4 -12
-10 0 -18 25 -10 42 14 15 20 15 26 3 36 -11 9 -16 7 -24 -8z"/>
<path d="M1253 2547 c-3 -5 -3 -11 0 -14 8 -7 47 7 47 17 0 11 -40 9 -47 -3z"/>
<path d="M1448 2530 c-2 -6 -11 -12 -20 -13 -9 -2 -23 -9 -31 -15 -13 -11 -16
-10 -20 5 -4 16 -5 15 -6 -2 -1 -13 -13 -25 -33 -34 -43 -18 -70 -23 -64 -13
3 5 -8 8 -25 8 -17 0 -29 -5 -29 -13 0 -7 7 -10 18 -7 9 3 6 -1 -8 -9 -22 -13
-26 -13 -38 2 -13 15 -13 15 -8 -1 4 -14 -6 -21 -52 -35 -31 -9 -77 -17 -102
-19 -25 -1 -45 -2 -45 -4 0 -1 -8 -3 -18 -5 -11 -2 -16 1 -14 8 3 7 10 11 17
9 24 -5 56 25 55 52 -2 41 -20 52 -39 25 -9 -13 -16 -31 -16 -40 0 -9 -17 -29
-37 -45 -25 -19 -35 -22 -30 -11 5 14 3 15 -19 5 -14 -6 -23 -17 -20 -23 2 -7
-4 -26 -14 -42 -13 -23 -25 -30 -46 -29 -16 1 -37 -7 -52 -21 -19 -18 -28 -20
-38 -12 -33 27 -9 -4 44 -59 49 -50 65 -61 102 -66 24 -3 45 -8 48 -11 5 -5
-23 -9 -46 -6 -16 2 -11 -17 12 -45 10 -12 18 -26 19 -31 1 -9 41 -43 51 -43
3 0 6 9 6 19 0 23 28 54 41 46 5 -4 9 -1 9 4 0 6 7 11 15 11 8 0 15 5 15 11 0
5 5 7 10 4 6 -3 13 1 16 9 3 9 12 16 20 16 8 0 14 5 14 11 0 5 4 8 9 4 5 -3
12 -1 16 5 4 6 11 8 16 4 5 -3 8 0 7 8 -2 8 6 13 19 12 12 0 20 3 18 7 -3 4 2
10 11 13 10 4 13 2 9 -7 -4 -6 0 -4 8 5 11 14 16 15 27 5 7 -7 10 -7 7 -1 -3
6 3 18 13 27 13 11 20 12 23 4 3 -9 10 -9 27 1 18 11 21 11 15 0 -6 -10 -5
-10 5 -1 7 6 18 9 25 7 7 -3 20 5 29 18 9 12 16 19 16 14 0 -5 8 -2 17 5 12
10 14 10 9 1 -5 -9 2 -11 27 -10 19 2 33 6 30 11 -2 4 0 7 6 7 5 0 13 -4 16
-10 3 -5 14 -10 23 -10 9 0 -10 14 -43 31 -67 34 -86 49 -64 49 7 0 39 -13 69
-30 67 -36 70 -36 70 -6 0 18 -13 32 -50 56 -27 18 -50 36 -50 40 0 4 -9 10
-20 13 -11 3 -20 10 -20 16 0 6 26 -3 57 -19 82 -43 88 -41 86 22 -1 29 -2 70
-2 91 -1 28 -4 36 -13 30 -19 -11 -61 -12 -75 -1 -7 5 -12 5 -15 -2z m-554
-272 c-3 -4 -9 -8 -15 -8 -5 0 -9 4 -9 8 0 5 7 9 15 9 8 0 12 -4 9 -9z"/>
<path d="M1580 2488 c-6 -114 -5 -224 3 -241 6 -14 12 -15 27 -7 13 7 20 7 20
1 0 -6 7 -8 15 -5 8 3 24 -1 36 -10 15 -10 27 -12 34 -6 8 7 19 3 35 -10 13
-11 29 -20 35 -20 7 0 18 -6 24 -13 6 -8 28 -19 50 -26 22 -6 54 -25 71 -41
18 -17 36 -30 41 -30 5 0 9 -4 9 -10 0 -5 7 -10 15 -10 8 0 19 -9 25 -20 14
-26 31 -17 26 13 -3 12 -5 22 -7 22 -1 0 -3 9 -4 20 -1 11 -5 34 -8 51 -5 32
3 38 31 21 6 -5 12 -6 12 -3 0 3 23 -6 52 -19 29 -13 54 -23 56 -21 1 2 5 37
7 77 2 41 1 69 -1 62 -3 -7 -12 -9 -19 -6 -11 4 -12 10 -5 23 7 13 7 21 -1 25
-6 4 -8 13 -5 20 8 23 -17 23 -36 1 -15 -18 -19 -19 -27 -6 -6 8 -16 15 -23
15 -7 0 -12 8 -12 18 1 9 -2 17 -7 17 -5 0 -9 -6 -9 -12 0 -8 -3 -9 -8 -3 -4
6 -20 15 -37 21 -16 6 -29 16 -27 23 2 8 -7 11 -27 8 -36 -6 -45 1 -25 20 17
18 11 31 -8 16 -16 -13 -48 -9 -58 7 -4 6 -15 8 -25 4 -13 -5 -16 -4 -11 4 4
7 3 12 -2 12 -6 0 -13 -7 -16 -16 -3 -8 -11 -12 -17 -9 -6 4 -8 13 -6 20 4 8
-3 12 -16 10 -12 0 -31 3 -42 9 -11 6 -24 10 -28 11 -4 0 -11 5 -15 10 -4 6
-22 11 -41 11 -18 1 -36 7 -40 13 -4 7 -9 -12 -11 -41z m310 -78 c0 -5 -7 -10
-16 -10 -8 0 -12 5 -9 10 3 6 10 10 16 10 5 0 9 -4 9 -10z"/>
<path d="M1010 2510 c-13 -8 -12 -10 3 -10 9 0 17 5 17 10 0 12 -1 12 -20 0z"/>
<path d="M1199 2503 c-26 -4 -59 -47 -46 -60 4 -3 7 1 7 11 0 9 4 15 8 12 5
-3 21 6 38 19 16 13 27 24 24 23 -3 0 -17 -3 -31 -5z"/>
<path d="M1095 2461 c-3 -6 3 -20 14 -32 l20 -22 -2 28 c-2 29 -20 44 -32 26z"/>
<path d="M1055 2415 c0 -16 5 -21 18 -17 9 2 17 7 17 11 0 3 -8 11 -17 17 -15
9 -18 7 -18 -11z"/>
<path d="M2000 2390 c0 -5 5 -10 11 -10 5 0 7 5 4 10 -3 6 -8 10 -11 10 -2 0
-4 -4 -4 -10z"/>
<path d="M2095 2350 c-3 -5 -1 -10 4 -10 6 0 11 5 11 10 0 6 -2 10 -4 10 -3 0
-8 -4 -11 -10z"/>
<path d="M687 2214 c4 -10 -1 -17 -15 -21 -18 -4 -38 -44 -33 -66 1 -4 -12
-13 -28 -18 -20 -7 -28 -15 -24 -25 3 -8 0 -14 -7 -14 -6 0 -8 -5 -4 -12 4 -6
-1 -17 -10 -23 -15 -11 -15 -13 -1 -19 9 -3 13 -11 10 -16 -5 -8 -12 -7 -23 2
-13 11 -15 10 -10 -9 5 -19 2 -23 -19 -23 -23 0 -23 -1 -8 -16 11 -12 13 -20
6 -27 -6 -6 -11 -20 -11 -31 0 -26 -13 -12 -15 17 -1 12 3 25 9 29 7 5 4 8 -6
8 -10 0 -15 6 -13 13 3 6 -4 18 -15 25 -17 10 -20 10 -20 -2 0 -8 -12 -25 -27
-37 -16 -12 -20 -19 -11 -16 28 10 28 -20 0 -33 -18 -8 -22 -14 -13 -18 7 -2
18 2 23 9 8 11 9 10 4 -3 -3 -10 -1 -20 4 -23 20 -12 9 -22 -17 -17 l-28 5 20
-23 c14 -16 16 -24 8 -27 -7 -2 -9 -12 -6 -21 4 -15 3 -15 -6 -2 -9 12 -11 9
-11 -17 0 -17 5 -35 10 -38 6 -4 7 -12 3 -18 -21 -33 -12 -45 87 -110 l66 -44
54 38 c63 46 88 51 45 10 -16 -16 -33 -27 -36 -25 -3 2 -17 -8 -30 -23 -17
-18 -20 -27 -11 -30 7 -3 23 -15 36 -27 12 -11 40 -31 62 -43 l40 -22 0 22
c-1 12 -7 28 -13 35 -12 12 -18 69 -13 115 1 10 -4 26 -11 35 -8 9 -9 14 -5
10 16 -13 36 13 36 46 0 17 9 42 20 56 11 14 20 31 20 38 0 6 5 12 11 12 5 0
15 14 21 32 10 28 12 30 19 12 6 -15 8 -13 8 11 1 38 59 107 91 109 30 1 37
22 11 31 -12 3 -21 9 -21 13 0 14 -84 97 -99 97 -8 0 -16 6 -19 13 -2 6 1 12
8 12 13 0 -20 49 -34 50 -4 0 -17 11 -28 25 -22 28 -41 33 -31 9z m-17 -138
c0 -2 -7 -9 -15 -16 -13 -11 -14 -10 -9 4 5 14 24 23 24 12z m-62 -56 c-7 -10
-14 -18 -15 -16 -6 6 9 36 18 36 5 0 4 -9 -3 -20z m-134 -61 c-3 -5 0 -16 6
-24 9 -11 9 -15 1 -15 -6 0 -11 -4 -11 -10 0 -15 33 -50 42 -44 4 3 8 -2 8
-11 0 -14 -3 -14 -37 0 -42 18 -52 25 -34 25 7 0 10 10 7 25 -3 14 -1 23 5 20
5 -4 9 -1 9 4 0 6 -4 11 -9 11 -5 0 -7 9 -4 20 3 11 9 17 14 14 5 -3 7 -10 3
-15z"/>
<path d="M1650 2209 c0 -5 5 -7 10 -4 6 3 10 8 10 11 0 2 -4 4 -10 4 -5 0 -10
-5 -10 -11z"/>
<path d="M2203 2170 c1 -19 -2 -41 -7 -48 -14 -23 0 -12 44 34 36 38 40 45 21
39 -16 -5 -21 -4 -17 4 5 7 -2 10 -18 9 -21 -2 -24 -7 -23 -38z"/>
<path d="M2178 2069 c-95 -98 -104 -110 -89 -122 19 -13 47 -57 43 -69 -1 -5
2 -8 6 -8 4 0 14 -16 21 -35 7 -19 16 -35 22 -35 5 0 7 -18 5 -40 -3 -27 1
-46 11 -55 8 -8 11 -19 8 -25 -10 -16 -12 -91 -2 -97 4 -2 3 -11 -4 -19 -8
-10 -8 -14 0 -14 6 0 11 3 11 8 0 4 20 21 45 37 24 17 45 33 45 36 0 4 11 14
24 23 24 15 25 15 77 -50 l52 -65 37 38 c35 35 37 39 21 53 -9 8 -17 29 -19
45 -1 23 1 26 8 15 8 -12 10 -9 10 13 0 16 -4 26 -10 22 -5 -3 -10 1 -10 9 0
9 -5 16 -11 16 -6 0 -9 7 -6 15 4 8 2 17 -4 20 -5 4 -7 10 -4 15 3 5 1 17 -4
27 -5 10 -16 34 -25 53 -8 19 -16 31 -16 25 0 -5 -7 1 -15 15 -8 15 -10 29 -4
36 5 7 1 19 -12 33 -13 14 -19 31 -17 46 3 15 0 26 -10 30 -11 4 -13 0 -9 -16
6 -24 5 -23 -42 39 -18 23 -29 42 -24 42 4 0 8 11 8 25 0 14 -2 25 -5 25 -3
-1 -53 -50 -112 -111z"/>
<path d="M520 2151 c0 -5 5 -13 10 -16 6 -3 10 -2 10 4 0 5 -4 13 -10 16 -5 3
-10 2 -10 -4z"/>
<path d="M2054 2136 c-3 -7 -2 -26 1 -42 3 -16 8 -45 11 -64 3 -19 7 -36 9
-38 6 -6 44 41 39 49 -2 4 4 13 15 18 33 18 32 38 -2 58 -50 30 -67 34 -73 19z"/>
<path d="M1160 2129 c0 -5 5 -7 10 -4 6 3 10 8 10 11 0 2 -4 4 -10 4 -5 0 -10
-5 -10 -11z"/>
<path d="M435 2051 c-3 -5 2 -11 10 -15 8 -3 17 -1 20 3 3 5 -2 11 -10 15 -8
3 -17 1 -20 -3z"/>
<path d="M975 2030 c3 -5 8 -10 11 -10 2 0 4 5 4 10 0 6 -5 10 -11 10 -5 0 -7
-4 -4 -10z"/>
<path d="M412 2023 c-6 -3 -9 -10 -5 -16 8 -12 9 -18 12 -38 0 -5 6 -7 12 -4
6 4 8 13 5 20 -2 7 1 18 7 25 9 10 9 11 0 6 -6 -3 -13 -2 -15 2 -1 5 -9 7 -16
5z"/>
<path d="M2046 2005 c-9 -26 -7 -32 5 -12 6 10 9 21 6 23 -2 3 -7 -2 -11 -11z"/>
<path d="M2450 1906 c0 -8 5 -18 10 -21 6 -3 10 1 10 9 0 8 -4 18 -10 21 -5 3
-10 -1 -10 -9z"/>
<path d="M304 1819 c0 -13 3 -15 13 -7 7 6 13 12 13 13 0 2 -6 5 -13 8 -7 3
-13 -3 -13 -14z"/>
<path d="M383 1814 c0 -16 13 -19 21 -5 3 5 0 11 -7 14 -8 3 -14 -1 -14 -9z"/>
<path d="M350 1790 c0 -5 7 -10 16 -10 8 0 12 5 9 10 -3 6 -10 10 -16 10 -5 0
-9 -4 -9 -10z"/>
<path d="M2530 1684 c0 -8 5 -12 10 -9 6 4 8 11 5 16 -9 14 -15 11 -15 -7z"/>
<path d="M323 1645 c0 -8 2 -13 4 -11 10 10 57 -12 59 -28 2 -13 -3 -17 -15
-13 -17 4 -17 2 -5 -23 18 -34 23 -87 14 -122 -6 -19 -4 -28 6 -32 8 -3 14 -2
14 3 0 5 19 21 42 37 66 45 91 72 84 89 -3 8 -10 15 -16 15 -6 0 -18 6 -25 13
-29 25 -41 33 -82 53 -23 12 -39 25 -35 30 4 4 0 3 -9 -4 -10 -8 -19 -8 -26
-1 -6 6 -10 5 -10 -6z"/>
<path d="M2340 1644 c0 -6 -19 -25 -42 -42 -90 -66 -86 -56 -41 -99 22 -21 52
-48 66 -61 l25 -23 46 46 c49 51 54 62 31 71 -8 4 -12 10 -9 15 3 5 -2 12 -10
15 -9 3 -16 12 -16 20 0 8 -3 14 -8 14 -4 0 -15 12 -24 28 -10 15 -18 22 -18
16z"/>
<path d="M2492 1554 c-22 -15 -30 -44 -12 -44 6 0 10 -7 10 -16 0 -8 4 -13 9
-10 5 4 11 1 13 -5 2 -5 3 13 3 40 0 28 0 51 0 51 0 0 -11 -7 -23 -16z"/>
<path d="M2177 1522 c14 -9 14 -51 -1 -71 -8 -11 -8 -13 2 -7 6 4 12 2 12 -3
0 -6 -5 -11 -12 -11 -6 0 -3 -7 8 -15 17 -13 17 -14 2 -15 -22 0 -51 -53 -37
-67 6 -6 5 -14 -6 -23 -8 -7 -15 -16 -15 -20 0 -5 -10 -30 -22 -57 -12 -26
-22 -52 -22 -56 -1 -4 -10 -18 -21 -30 -11 -12 -27 -35 -35 -50 -7 -15 -19
-26 -26 -23 -8 3 -11 -7 -9 -30 1 -19 -2 -37 -7 -40 -4 -3 -6 -9 -3 -13 2 -5
7 -34 10 -65 6 -68 9 -76 35 -71 11 2 20 -1 20 -6 0 -6 6 -6 18 0 10 5 24 6
31 2 13 -9 99 -6 108 3 3 3 0 14 -8 23 -12 16 -12 17 1 6 15 -11 43 -4 40 11
0 4 10 16 23 26 14 11 28 31 31 44 5 19 11 24 24 19 14 -6 15 -4 4 9 -9 12
-10 18 -2 23 6 4 18 -1 25 -11 14 -18 14 -18 10 1 -2 11 -6 28 -10 38 -5 13
-3 16 8 11 16 -6 44 32 33 43 -3 4 -1 12 4 19 6 6 10 16 9 20 -4 23 3 35 19
32 13 -2 16 3 14 26 -3 18 0 26 7 22 14 -9 14 0 -1 24 -10 16 -10 24 0 40 6
11 12 26 12 34 0 8 7 17 16 20 24 9 28 7 14 -9 -6 -8 -10 -20 -7 -27 3 -8 6
-6 6 5 1 10 4 16 9 14 4 -3 7 10 8 29 0 18 -2 31 -6 29 -4 -2 -7 2 -7 10 0 13
3 12 18 -1 17 -16 18 -15 9 15 -5 19 -5 31 1 31 10 0 7 5 -34 52 l-23 27 -50
-58 c-48 -57 -49 -58 -74 -42 -14 8 -39 29 -57 47 -37 37 -87 74 -100 74 -4 0
-3 -4 4 -8z m-97 -432 c0 -5 -5 -10 -11 -10 -5 0 -7 5 -4 10 3 6 8 10 11 10 2
0 4 -4 4 -10z"/>
<path d="M535 1499 c-5 -5 -22 -19 -38 -30 -15 -11 -25 -24 -22 -29 3 -5 -11
-18 -30 -30 -36 -23 -46 -55 -23 -78 7 -7 9 -12 6 -12 -4 0 0 -16 8 -35 8 -20
12 -40 9 -45 -3 -4 1 -15 9 -23 8 -8 12 -17 9 -21 -3 -3 0 -12 7 -21 7 -8 9
-15 6 -15 -4 0 0 -7 8 -16 16 -15 13 -39 -4 -29 -4 3 -10 -2 -14 -10 -6 -17
10 -30 19 -15 10 17 25 11 25 -9 0 -11 3 -21 8 -23 9 -4 43 -68 36 -68 -3 0
-12 7 -20 15 -19 18 -38 19 -52 3 -7 -10 -3 -18 14 -31 15 -11 24 -13 24 -6 0
8 4 8 15 -1 8 -6 19 -9 25 -5 5 3 10 -1 10 -9 0 -10 6 -13 18 -10 13 5 14 4 3
-4 -8 -6 -11 -17 -8 -26 3 -8 2 -18 -4 -21 -5 -4 -7 -11 -3 -16 3 -5 9 -7 14
-4 5 3 7 -4 5 -15 -2 -11 0 -20 5 -20 5 0 15 -7 23 -15 14 -13 21 -10 61 29
25 24 59 52 76 62 16 10 33 26 36 36 3 10 9 18 15 18 8 0 17 6 71 52 19 16 19
17 1 36 -38 40 -62 72 -85 114 -13 23 -27 46 -31 49 -5 3 -9 10 -9 15 -2 22
-11 44 -18 44 -9 0 -19 32 -26 85 -3 22 -11 43 -18 47 -8 4 -40 28 -74 53 -62
47 -71 50 -87 34z m1 -406 c-1 -2 -12 15 -23 37 -15 27 -18 40 -10 43 10 3 41
-72 33 -80z"/>
<path d="M434 1424 c-18 -14 -18 -14 6 -3 31 14 36 19 24 19 -6 0 -19 -7 -30
-16z"/>
<path d="M2445 1280 c-3 -5 -1 -10 4 -10 6 0 11 5 11 10 0 6 -2 10 -4 10 -3 0
-8 -4 -11 -10z"/>
<path d="M425 1170 c-3 -5 -2 -10 4 -10 5 0 13 5 16 10 3 6 2 10 -4 10 -5 0
-13 -4 -16 -10z"/>
<path d="M2445 1070 c3 -5 8 -10 11 -10 2 0 4 5 4 10 0 6 -5 10 -11 10 -5 0
-7 -4 -4 -10z"/>
<path d="M915 995 c0 -29 2 -52 5 -50 3 2 6 -12 7 -31 1 -19 0 -34 -2 -34 -5
0 -26 76 -28 101 -2 24 -1 24 -29 -4 -17 -17 -23 -33 -22 -65 1 -23 -1 -42 -5
-42 -4 0 -8 6 -9 13 -2 28 -9 48 -16 48 -4 0 -19 -14 -34 -31 -14 -16 -30 -30
-34 -30 -5 0 -22 -13 -40 -30 -17 -16 -34 -30 -38 -30 -5 0 -10 -7 -13 -15 -5
-11 -1 -12 20 -4 21 8 28 6 40 -11 8 -11 23 -20 33 -20 10 0 22 -9 25 -21 5
-14 13 -19 26 -16 10 3 23 -1 30 -9 6 -8 15 -12 19 -9 4 2 15 -4 25 -15 10
-11 21 -17 25 -15 7 4 60 -39 60 -48 0 -3 -16 -3 -35 -1 -21 2 -34 -1 -32 -8
1 -6 -4 -13 -12 -16 -8 -2 -11 -1 -8 4 5 9 -20 13 -98 17 -22 1 -43 5 -46 10
-4 5 -18 1 -33 -8 -14 -10 -26 -13 -27 -9 0 5 -4 0 -9 -11 -7 -17 -9 -17 -9
-2 -1 9 -5 17 -11 17 -5 0 -10 -8 -11 -17 0 -15 -2 -15 -8 2 -5 11 -6 25 -3
30 3 6 -1 4 -10 -2 -8 -7 -18 -10 -22 -6 -4 4 -4 0 0 -10 3 -9 2 -17 -4 -17
-6 0 -12 4 -14 9 -5 15 -61 17 -65 4 -3 -8 6 -13 24 -14 28 -1 28 -1 3 -8 -19
-5 -29 -2 -42 14 -13 15 -17 16 -18 5 0 -10 -5 -7 -16 8 -8 12 -21 22 -27 22
-7 0 -6 -4 3 -10 13 -8 13 -10 0 -14 -21 -7 -54 -3 -62 8 -4 6 -16 5 -31 -1
-21 -10 -26 -9 -32 5 -5 12 -8 13 -14 4 -6 -10 -11 -10 -21 3 -12 14 -14 14
-31 -1 -14 -12 -22 -13 -38 -4 -28 14 -26 18 7 13 27 -3 27 -3 3 7 -13 6 -32
8 -42 5 -11 -4 -19 -2 -19 3 0 4 -13 8 -29 8 -17 0 -28 -3 -25 -8 3 -5 9 -6
13 -4 4 3 18 -4 29 -15 12 -11 22 -16 22 -12 0 4 4 3 8 -3 4 -6 16 -16 27 -22
11 -7 14 -12 7 -12 -8 0 -26 9 -42 20 -15 11 -30 17 -33 14 -9 -9 4 -35 14
-28 5 3 9 0 9 -5 0 -6 9 -11 20 -11 11 0 20 -5 20 -11 0 -5 4 -8 9 -4 5 3 15
-1 23 -8 21 -22 55 -37 80 -37 13 0 29 -9 36 -20 11 -19 14 -19 28 -5 9 8 12
20 8 27 -6 10 -5 11 8 1 8 -7 19 -9 23 -5 5 4 5 2 2 -4 -9 -16 14 -33 52 -37
37 -4 67 -27 36 -27 -11 0 -26 -4 -34 -9 -9 -6 2 -8 33 -6 34 2 49 -2 57 -14
8 -12 8 -11 3 8 l-7 25 26 -27 c21 -24 26 -25 31 -11 6 15 8 15 24 2 31 -27
42 -31 35 -11 -5 15 -4 16 8 6 8 -6 25 -11 39 -11 14 0 34 -2 45 -5 11 -2 23
1 27 7 5 7 8 4 8 -7 0 -17 1 -17 16 -3 8 9 12 21 8 27 -5 8 -3 9 5 5 7 -5 10
-14 7 -22 -6 -16 10 -19 19 -4 6 10 36 2 47 -14 5 -7 8 -5 8 4 0 13 2 13 9 1
8 -12 12 -12 26 2 17 18 30 23 21 9 -5 -8 107 -8 121 1 4 3 24 3 43 2 19 -2
38 1 41 6 3 5 23 11 45 12 21 1 45 8 53 15 11 11 17 10 33 -4 18 -17 18 -17
12 -1 -5 15 -3 16 20 7 14 -5 26 -6 26 -2 1 4 9 -3 19 -15 18 -21 18 -17 19
162 1 154 -1 184 -14 189 -8 3 -12 2 -9 -4 3 -5 -4 -8 -15 -7 -11 1 -20 5 -20
10 0 5 -8 6 -18 2 -12 -3 -30 4 -47 17 -36 28 -121 68 -129 60 -3 -3 -6 0 -6
7 0 7 -4 9 -10 6 -5 -3 -10 -2 -10 3 0 10 -67 55 -82 56 -4 1 -13 8 -20 17 -7
9 -28 26 -45 38 -18 12 -33 31 -33 41 0 10 -3 21 -7 23 -5 3 -8 -19 -8 -48z
m-636 -404 c-6 -2 -18 4 -27 13 -15 15 -15 15 10 4 15 -7 23 -15 17 -17z m326
0 c-3 -6 -11 -11 -17 -11 -6 0 -6 6 2 15 14 17 26 13 15 -4z m-298 -34 c9 -19
8 -24 -3 -24 -7 0 -11 4 -8 9 3 5 0 15 -6 23 -7 8 -8 15 -3 15 5 0 15 -10 20
-23z m155 -31 c7 4 8 2 4 -5 -9 -13 -26 -5 -25 12 0 9 2 8 6 -1 2 -6 10 -9 15
-6z"/>
<path d="M1926 990 c-20 -22 -36 -38 -36 -36 0 2 -17 -12 -37 -30 -20 -19 -43
-34 -50 -34 -7 0 -13 -4 -13 -10 0 -5 -7 -10 -15 -10 -9 0 -20 -11 -26 -24 -7
-14 -17 -22 -24 -20 -7 3 -19 -2 -28 -10 -8 -8 -17 -12 -21 -9 -3 3 -12 1 -19
-5 -8 -7 -17 -8 -22 -4 -4 4 -5 -3 -2 -15 6 -26 4 -27 -23 -11 -15 10 -22 9
-39 -6 -10 -9 -25 -18 -33 -20 -7 -1 -20 -6 -28 -11 -12 -7 -13 -6 -3 7 16 19
8 28 -23 22 -13 -2 -24 -1 -24 4 0 5 -13 8 -30 8 -16 0 -30 -3 -30 -6 0 -4 25
-24 55 -46 30 -21 54 -43 55 -48 0 -5 8 -15 18 -22 9 -8 12 -14 5 -14 -7 0
-23 10 -37 23 -23 20 -37 32 -77 64 -14 11 -16 8 -13 -25 2 -20 3 -54 3 -74 1
-37 2 -38 36 -35 19 1 35 5 35 8 0 5 65 39 75 39 3 0 5 -4 5 -10 0 -5 -7 -10
-15 -10 -8 0 -15 -5 -15 -11 0 -5 -4 -7 -10 -4 -5 3 -10 2 -10 -3 0 -5 -20
-15 -45 -22 -25 -7 -45 -16 -45 -19 0 -7 37 -41 44 -41 10 0 68 -61 63 -66 -7
-8 -57 26 -57 39 0 6 -3 7 -7 4 -3 -4 -16 4 -29 18 -26 28 -30 22 -33 -54 -2
-50 -1 -53 14 -38 9 10 22 17 30 17 7 0 16 6 19 13 4 8 8 9 11 1 3 -6 21 -10
40 -8 19 1 35 -2 35 -7 0 -6 5 -7 10 -4 8 5 7 11 -1 21 -7 8 -7 14 -1 14 5 0
12 -6 15 -14 3 -7 19 -18 37 -24 18 -7 28 -7 25 -2 -7 11 8 14 19 3 3 -4 16
-8 29 -10 12 -2 26 -8 31 -13 5 -5 18 -2 32 7 22 14 24 14 25 -3 0 -11 3 -14
6 -6 2 6 12 12 20 12 13 0 13 -3 3 -15 -11 -13 -10 -14 4 -9 10 4 15 13 12 20
-3 7 -1 16 4 19 6 4 10 2 10 -3 0 -5 7 -9 15 -9 8 0 15 4 15 9 0 5 7 3 15 -6
19 -19 19 -26 -1 -26 -8 0 -13 -4 -10 -8 6 -11 88 -8 106 3 10 6 12 4 7 -9 -4
-11 -3 -15 4 -10 18 11 223 13 236 2 7 -6 14 -5 19 3 5 8 3 10 -7 4 -12 -7
-12 -5 -1 6 11 12 14 12 21 0 6 -10 17 -11 37 -6 16 5 36 10 44 11 8 1 26 5
40 8 94 22 192 29 202 14 6 -10 8 -9 8 4 0 9 3 23 6 32 4 12 0 16 -15 16 -12
0 -21 -4 -21 -9 0 -5 -21 -9 -46 -8 -31 0 -40 3 -29 9 8 5 19 7 24 3 5 -3 16
2 24 10 15 14 23 14 65 -2 27 -10 62 -11 62 -1 0 4 -11 8 -24 8 -13 0 -26 6
-29 14 -4 10 -16 13 -34 11 -15 -2 -28 -4 -28 -5 0 -1 -21 -3 -47 -5 -27 -1
-54 -9 -63 -19 -18 -17 -40 -22 -30 -6 3 5 0 8 -7 6 -7 -2 -35 -7 -63 -10 -46
-6 -48 -5 -29 8 12 8 30 14 40 14 28 -2 94 22 94 34 0 6 6 8 14 5 8 -3 20 0
26 8 6 7 20 11 30 8 11 -3 20 -1 20 5 0 6 10 9 21 7 12 -3 27 -1 33 3 18 11
76 11 76 0 0 -6 13 2 28 18 16 16 27 32 25 37 -2 4 1 7 7 7 6 0 8 5 3 13 -4 6
-6 19 -5 29 2 9 -2 19 -9 23 -8 5 -9 1 -4 -14 3 -12 3 -20 -2 -19 -4 1 -17 -2
-28 -8 -16 -9 -140 -12 -140 -4 0 1 -11 4 -25 5 -29 4 -49 10 -70 18 -8 4 -29
8 -47 10 -17 2 -38 9 -47 16 -9 8 -16 8 -20 2 -4 -6 -13 -8 -20 -5 -8 3 -17 0
-21 -6 -5 -8 -11 -8 -21 1 -8 6 -14 8 -14 4 0 -4 -7 -2 -15 5 -8 7 -15 10 -15
7 0 -3 -21 1 -47 9 l-48 14 25 -20 c14 -11 29 -20 35 -20 5 0 4 -5 -2 -11 -15
-15 -158 -23 -180 -11 -14 9 -13 13 10 36 28 28 35 42 15 30 -7 -4 -8 -3 -4 4
4 7 16 12 27 12 11 0 17 4 14 10 -3 5 0 7 8 4 8 -3 21 3 28 14 8 11 17 20 21
21 5 1 22 10 38 20 l31 18 -66 2 c-87 2 -138 10 -147 25 -4 6 -3 13 3 14 6 3
6 9 -2 18 -9 11 -9 14 0 14 9 0 9 5 0 21 -8 16 -8 20 1 14 9 -5 9 -3 2 11 -5
11 -8 34 -6 52 1 17 1 32 -1 32 -1 0 -19 -18 -39 -40z m427 -358 c4 8 8 9 14
3 10 -12 25 -16 76 -20 22 -2 42 -7 45 -11 4 -4 -3 -4 -15 -1 -13 3 -23 1 -23
-5 0 -5 -4 -6 -10 -3 -5 3 -18 1 -29 -5 -13 -7 -22 -7 -26 0 -4 7 -13 6 -27
-1 -11 -6 -31 -8 -46 -3 -15 4 -31 8 -37 8 -20 2 -9 29 12 31 13 1 26 5 30 8
3 4 12 2 19 -4 8 -7 14 -6 17 3z m-433 -208 c0 -12 -2 -12 -14 -2 -8 7 -12 16
-9 21 7 11 23 -2 23 -19z"/>
<path d="M2437 1023 c-4 -3 -7 -11 -7 -17 0 -6 5 -5 12 2 6 6 9 14 7 17 -3 3
-9 2 -12 -2z"/>
<path d="M750 703 c8 -3 26 -14 39 -24 13 -10 27 -16 32 -13 5 3 9 0 9 -5 0
-6 5 -11 11 -11 8 0 8 5 -1 15 -7 8 -16 12 -21 9 -5 -3 -9 -1 -9 4 0 10 -45
32 -63 31 -7 0 -5 -3 3 -6z"/>
<path d="M100 582 c0 -6 9 -12 20 -15 11 -3 20 -3 20 -1 0 2 -9 8 -20 14 -11
6 -20 7 -20 2z"/>
<path d="M193 525 c0 -7 6 -11 14 -8 7 3 13 6 13 8 0 2 -6 5 -13 8 -8 3 -14
-1 -14 -8z"/>
<path d="M375 490 c-3 -5 -2 -10 4 -10 5 0 13 5 16 10 3 6 2 10 -4 10 -5 0
-13 -4 -16 -10z"/>
<path d="M2735 490 c-3 -5 -1 -10 4 -10 6 0 11 5 11 10 0 6 -2 10 -4 10 -3 0
-8 -4 -11 -10z"/>
<path d="M400 466 c0 -2 11 -6 25 -8 14 -3 25 -1 25 3 0 5 -11 9 -25 9 -14 0
-25 -2 -25 -4z"/>
<path d="M2700 450 c0 -5 7 -7 15 -4 8 4 15 8 15 10 0 2 -7 4 -15 4 -8 0 -15
-4 -15 -10z"/>
<path d="M963 355 c0 -8 4 -12 9 -9 4 3 8 9 8 15 0 5 -4 9 -8 9 -5 0 -9 -7 -9
-15z"/>
<path d="M1696 345 c-11 -8 -15 -15 -9 -15 7 0 15 5 18 10 4 6 11 8 16 5 5 -4
9 -1 9 4 0 15 -11 13 -34 -4z"/>
</g>
</svg>
